<svg width="1200" height="630" viewBox="0 0 1200 630" fill="none" xmlns="http://www.w3.org/2000/svg">
  <rect width="1200" height="630" fill="#e7e0d2"/>
  <defs>
    <pattern id="grid" width="36" height="36" patternUnits="userSpaceOnUse">
      <path d="M36 0H0V36" stroke="white" stroke-opacity="0.52" stroke-width="1"/>
    </pattern>
    <clipPath id="roughGrid">
      <path d="M94 72 L74 48 L132 34 L196 42 L262 33 L338 44 L420 32 L497 47 L575 35 L658 45 L739 36 L817 49 L903 38 L982 53 L1069 45 L1128 70 L1108 118 L1125 178 L1102 237 L1120 309 L1097 374 L1115 442 L1089 512 L1123 575 L1042 589 L970 574 L890 596 L811 578 L739 591 L654 575 L575 598 L497 579 L417 592 L346 576 L262 590 L190 574 L109 588 L76 532 L92 468 L70 408 L88 341 L65 278 L86 208 L68 142 Z"/>
    </clipPath>
    <linearGradient id="fadeX" x1="76" y1="0" x2="1124" y2="0" gradientUnits="userSpaceOnUse">
      <stop offset="0" stop-color="white" stop-opacity="0"/>
      <stop offset="0.10" stop-color="white" stop-opacity="1"/>
      <stop offset="0.90" stop-color="white" stop-opacity="1"/>
      <stop offset="1" stop-color="white" stop-opacity="0"/>
    </linearGradient>
    <linearGradient id="fadeY" x1="0" y1="34" x2="0" y2="598" gradientUnits="userSpaceOnUse">
      <stop offset="0" stop-color="white" stop-opacity="0"/>
      <stop offset="0.10" stop-color="white" stop-opacity="1"/>
      <stop offset="0.90" stop-color="white" stop-opacity="1"/>
      <stop offset="1" stop-color="white" stop-opacity="0"/>
    </linearGradient>
    <mask id="gridMask" maskUnits="userSpaceOnUse" x="60" y="30" width="1080" height="580">
      <rect x="60" y="30" width="1080" height="580" fill="black"/>
      <g clip-path="url(#roughGrid)">
        <rect x="76" y="34" width="1048" height="564" fill="url(#fadeX)" opacity="0.92"/>
        <rect x="76" y="34" width="1048" height="564" fill="url(#fadeY)" opacity="0.72"/>
      </g>
    </mask>
  </defs>
  <g mask="url(#gridMask)">
    <rect x="60" y="30" width="1080" height="580" fill="url(#grid)"/>
  </g>
  <rect x="140" y="96" width="920" height="438" fill="#faf6ee" stroke="#cabda5" stroke-width="2"/>
  <rect x="140" y="96" width="920" height="10" fill="#c86a22"/>
  <g transform="translate(194 164) scale(4.2)" color="#c86a22">
    <path d="M10.8636 14.3597C11.6696 14.5726 13.4306 15.0379 13.7109 13.9127C13.9976 12.762 12.2887 12.3789 11.4555 12.192C11.3626 12.1712 11.2805 12.1528 11.2134 12.1361L10.6711 14.3097C10.7264 14.3234 10.7911 14.3405 10.8636 14.3597Z" fill="currentColor"/>
    <path d="M11.6234 11.1832C12.2953 11.3626 13.7608 11.7538 14.0159 10.7312C14.2766 9.68546 12.8525 9.37009 12.1568 9.21604C12.0785 9.1987 12.0094 9.18339 11.953 9.16932L11.4615 11.1408C11.5079 11.1524 11.5624 11.1669 11.6234 11.1832Z" fill="currentColor"/>
    <path fill-rule="evenodd" clip-rule="evenodd" d="M9.82199 20.7305C14.6445 21.9328 19.5281 18.9984 20.7307 14.1771C21.9327 9.35531 18.9981 4.47145 14.1762 3.26933C9.35537 2.06721 4.47138 5.00195 3.26963 9.82381C2.06676 14.6449 5.00151 19.5284 9.82199 20.7305ZM13.9872 8.47795C15.2341 8.90745 16.1461 9.55107 15.967 10.7488C15.8374 11.6253 15.3511 12.0498 14.706 12.1986C15.592 12.6599 16.0429 13.3673 15.6132 14.5936C15.0805 16.1164 13.8141 16.2449 12.13 15.9264L11.7212 17.5642L10.7337 17.3181L11.137 15.7023C10.881 15.6387 10.6195 15.5711 10.3497 15.4981L9.94512 17.1214L8.95875 16.8753L9.36712 15.2344C9.28223 15.2126 9.19679 15.1904 9.11078 15.1679C8.96323 15.1295 8.81403 15.0906 8.66312 15.0528L7.37812 14.7324L7.86812 13.6023C7.86812 13.6023 8.59612 13.7957 8.58625 13.7814C8.86575 13.8507 8.98987 13.6683 9.03887 13.5468L9.68462 10.9581C9.71362 10.9651 9.74197 10.9722 9.7691 10.979C9.77577 10.9807 9.78236 10.9823 9.78887 10.9839C9.74937 10.9679 9.71374 10.9581 9.68624 10.9509L10.1469 9.10282C10.1589 8.89307 10.0867 8.62845 9.68674 8.52858C9.70224 8.51808 8.96962 8.3502 8.96962 8.3502L9.23237 7.29558L10.5941 7.63558L10.5931 7.64058C10.798 7.69158 11.0089 7.73983 11.2237 7.78883L11.6286 6.16683L12.6154 6.41296L12.219 8.00295C12.4841 8.06333 12.7505 8.12433 13.0104 8.18908L13.4042 6.60958L14.3916 6.85571L13.9872 8.47795Z" fill="currentColor"/>
  </g>
  <text x="194" y="310" fill="#241f18" font-family="Baskerville, 'Baskerville Old Face', Georgia, 'Noto Serif CJK SC', serif" font-size="66" font-weight="700">比特币白皮书中文翻译</text>
  <text x="198" y="376" fill="#6f675a" font-family="Baskerville, 'Baskerville Old Face', Georgia, serif" font-size="34">Bitcoin: A Peer-to-Peer Electronic Cash System</text>
  <text x="198" y="452" fill="#8b4318" font-family="Georgia, serif" font-size="28">Liz 译 · 2025</text>
</svg>
